<svg width="24" height="24" viewBox="0 0 24 25" fill="none" xmlns="http://www.w3.org/2000/svg">
<g id="material-symbols:shield-locked-rounded">
<path id="Vector" d="M12 22.4C11.8833 22.4 11.775 22.3917 11.675 22.375C11.575 22.3584 11.475 22.3334 11.375 22.3C9.09167 21.55 7.29167 20.1834 5.975 18.2C4.65833 16.2167 4 14.0167 4 11.6V6.87502C4 6.45836 4.121 6.08336 4.363 5.75002C4.605 5.41669 4.91733 5.17502 5.3 5.02502L11.3 2.77502C11.5333 2.69169 11.7667 2.65002 12 2.65002C12.2333 2.65002 12.4667 2.69169 12.7 2.77502L18.7 5.02502C19.0833 5.17502 19.396 5.41669 19.638 5.75002C19.88 6.08336 20.0007 6.45836 20 6.87502V11.6C20 11.7667 19.9957 11.9334 19.987 12.1C19.9783 12.2667 19.966 12.4334 19.95 12.6C19.7833 12.5667 19.625 12.5417 19.475 12.525C19.325 12.5084 19.1667 12.5 19 12.5C17.6167 12.5 16.4373 12.9877 15.462 13.963C14.4867 14.9384 13.9993 16.1174 14 17.5V21.75C13.7833 21.8667 13.5583 21.9667 13.325 22.05L12.625 22.3C12.525 22.3334 12.425 22.3584 12.325 22.375C12.225 22.3917 12.1167 22.4 12 22.4ZM16.85 22.5C16.6167 22.5 16.4167 22.4167 16.25 22.25C16.0833 22.0834 16 21.8834 16 21.65V18.35C16 18.1167 16.0833 17.9167 16.25 17.75C16.4167 17.5834 16.6167 17.5 16.85 17.5H17V16.5C17 15.95 17.196 15.479 17.588 15.087C17.98 14.695 18.4507 14.4994 19 14.5C19.55 14.5 20.021 14.696 20.413 15.088C20.805 15.48 21.0007 15.9507 21 16.5V17.5H21.15C21.3833 17.5 21.5833 17.5834 21.75 17.75C21.9167 17.9167 22 18.1167 22 18.35V21.65C22 21.8834 21.9167 22.0834 21.75 22.25C21.5833 22.4167 21.3833 22.5 21.15 22.5H16.85ZM18 17.5H20V16.5C20 16.2167 19.904 15.9794 19.712 15.788C19.52 15.5967 19.2827 15.5007 19 15.5C18.7167 15.5 18.479 15.596 18.287 15.788C18.095 15.98 17.9993 16.2174 18 16.5V17.5Z" fill="#E6E6E6"/>
</g>
</svg>
