<svg width="21" height="21" viewBox="0 0 21 21" fill="none" xmlns="http://www.w3.org/2000/svg">
<g id="gg:trash">
<g id="Group">
<path id="Vector" fill-rule="evenodd" clip-rule="evenodd" d="M14.4281 4.98694V4.1536C14.4281 3.71158 14.2525 3.28765 13.94 2.97509C13.6274 2.66253 13.2035 2.48694 12.7615 2.48694H7.76147C7.31945 2.48694 6.89552 2.66253 6.58296 2.97509C6.2704 3.28765 6.09481 3.71158 6.09481 4.1536V4.98694H3.59481C3.37379 4.98694 3.16183 5.07474 3.00555 5.23102C2.84927 5.3873 2.76147 5.59926 2.76147 5.82027C2.76147 6.04129 2.84927 6.25325 3.00555 6.40953C3.16183 6.56581 3.37379 6.6536 3.59481 6.6536H4.42814V15.8203C4.42814 16.4833 4.69153 17.1192 5.16037 17.588C5.62922 18.0569 6.2651 18.3203 6.92814 18.3203H13.5948C14.2578 18.3203 14.8937 18.0569 15.3626 17.588C15.8314 17.1192 16.0948 16.4833 16.0948 15.8203V6.6536H16.9281C17.1492 6.6536 17.3611 6.56581 17.5174 6.40953C17.6737 6.25325 17.7615 6.04129 17.7615 5.82027C17.7615 5.59926 17.6737 5.3873 17.5174 5.23102C17.3611 5.07474 17.1492 4.98694 16.9281 4.98694H14.4281ZM12.7615 4.1536H7.76147V4.98694H12.7615V4.1536ZM14.4281 6.6536H6.09481V15.8203C6.09481 16.0413 6.18261 16.2532 6.33889 16.4095C6.49517 16.5658 6.70713 16.6536 6.92814 16.6536H13.5948C13.8158 16.6536 14.0278 16.5658 14.1841 16.4095C14.3403 16.2532 14.4281 16.0413 14.4281 15.8203V6.6536Z" fill="#DA2B2B"/>
<path id="Vector_2" d="M7.76172 8.32043H9.42839V14.9871H7.76172V8.32043ZM11.0951 8.32043H12.7617V14.9871H11.0951V8.32043Z" fill="#DA2B2B"/>
</g>
</g>
</svg>
