<svg width="21" height="21" viewBox="0 0 21 21" fill="none" xmlns="http://www.w3.org/2000/svg">
<g id="fluent:edit-12-regular">
<path id="Vector" d="M17.535 3.42033C17.2388 3.12406 16.8871 2.88905 16.5001 2.72871C16.113 2.56837 15.6982 2.48584 15.2792 2.48584C14.8602 2.48584 14.4454 2.56837 14.0583 2.72871C13.6713 2.88905 13.3196 3.12406 13.0234 3.42033L12.1067 4.33867C12.0609 4.37531 12.019 4.41665 11.9817 4.462L2.8817 13.5637C2.76535 13.6797 2.68591 13.8276 2.65337 13.9887L1.81337 18.1553C1.78596 18.29 1.79229 18.4293 1.83178 18.561C1.87127 18.6926 1.9427 18.8124 2.03971 18.9098C2.13672 19.0071 2.25629 19.0789 2.38779 19.1189C2.51928 19.1588 2.65861 19.1656 2.79337 19.1387L6.9667 18.3053C7.12778 18.2728 7.27565 18.1933 7.3917 18.077L17.535 7.93367C17.8313 7.63744 18.0663 7.28576 18.2267 6.8987C18.387 6.51164 18.4695 6.09679 18.4695 5.67783C18.4695 5.25888 18.387 4.84402 18.2267 4.45697C18.0663 4.06991 17.8313 3.71822 17.535 3.422V3.42033ZM12.6334 6.17033L14.7884 8.32533L6.3917 16.7203L3.69503 17.2603L4.2367 14.567L12.6334 6.17033ZM15.9667 7.147L13.8117 4.99033L14.2017 4.60033C14.3425 4.45606 14.5105 4.34117 14.696 4.26231C14.8815 4.18344 15.0808 4.14218 15.2824 4.1409C15.4839 4.13963 15.6837 4.17837 15.8702 4.25488C16.0567 4.33139 16.2261 4.44415 16.3687 4.58663C16.5113 4.7291 16.6242 4.89846 16.7009 5.08489C16.7775 5.27131 16.8164 5.47109 16.8153 5.67266C16.8142 5.87422 16.7731 6.07356 16.6943 6.25913C16.6156 6.44469 16.5009 6.61278 16.3567 6.75366L15.9667 7.14366V7.147Z" fill="#686868"/>
</g>
</svg>
