<svg width="24" height="24" viewBox="0 0 24 25" fill="none" xmlns="http://www.w3.org/2000/svg">
<g id="ic:round-manage-search">
<path id="Vector" d="M6 9.49994H3C2.45 9.49994 2 9.04994 2 8.49994C2 7.94994 2.45 7.49994 3 7.49994H6C6.55 7.49994 7 7.94994 7 8.49994C7 9.04994 6.55 9.49994 6 9.49994ZM6 12.4999H3C2.45 12.4999 2 12.9499 2 13.4999C2 14.0499 2.45 14.4999 3 14.4999H6C6.55 14.4999 7 14.0499 7 13.4999C7 12.9499 6.55 12.4999 6 12.4999ZM19.88 18.7899L16.76 15.6699C15.9 16.2299 14.87 16.5499 13.76 16.4899C11.39 16.3799 9.36 14.5299 9.04 12.1799C8.93439 11.3989 9.01444 10.6039 9.27365 9.85958C9.53287 9.11524 9.96394 8.44252 10.5319 7.89601C11.0998 7.34951 11.7886 6.94462 12.5424 6.71421C13.2961 6.48381 14.0936 6.43438 14.87 6.56994C16.82 6.89994 18.44 8.41994 18.87 10.3499C19.2 11.8099 18.88 13.1699 18.17 14.2499L21.3 17.3799C21.69 17.7699 21.69 18.3999 21.3 18.7899C20.91 19.1799 20.27 19.1799 19.88 18.7899ZM17 11.4999C17 9.84994 15.65 8.49994 14 8.49994C12.35 8.49994 11 9.84994 11 11.4999C11 13.1499 12.35 14.4999 14 14.4999C15.65 14.4999 17 13.1499 17 11.4999ZM3 19.4999H11C11.55 19.4999 12 19.0499 12 18.4999C12 17.9499 11.55 17.4999 11 17.4999H3C2.45 17.4999 2 17.9499 2 18.4999C2 19.0499 2.45 19.4999 3 19.4999Z" fill="#E6E6E6"/>
</g>
</svg>
