<svg width="20" height="20" viewBox="0 0 20 20" fill="none" xmlns="http://www.w3.org/2000/svg">
<g id="Group">
<path id="Vector" fill-rule="evenodd" clip-rule="evenodd" d="M3.33341 10.0012V10.0003C3.33591 9.98699 3.34758 9.91366 3.41258 9.76949C3.48425 9.61032 3.60008 9.41033 3.76591 9.17949C4.09758 8.71866 4.59341 8.18616 5.22008 7.68116C6.48092 6.66366 8.17675 5.83366 10.0001 5.83366C11.8234 5.83366 13.5192 6.66366 14.7801 7.68033C15.4067 8.18533 15.9026 8.71783 16.2342 9.17866C16.4009 9.40949 16.5159 9.60949 16.5876 9.76866C16.6526 9.91283 16.6642 9.98616 16.6667 9.99949V10.0003C16.6642 10.0137 16.6526 10.087 16.5876 10.2312C16.4892 10.4388 16.3709 10.6364 16.2342 10.8212C15.9026 11.282 15.4067 11.8145 14.7801 12.3195C13.5201 13.337 11.8234 14.167 10.0001 14.167C8.17675 14.167 6.48092 13.337 5.22008 12.3203C4.59341 11.8153 4.09758 11.2828 3.76591 10.822C3.62917 10.6373 3.51083 10.4397 3.41258 10.232C3.37616 10.1589 3.34954 10.0812 3.33341 10.0012ZM10.0001 4.16699C7.68091 4.16699 5.62675 5.21199 4.17425 6.38283C3.44341 6.97116 2.84091 7.61116 2.41341 8.20533C2.21098 8.48032 2.0365 8.77484 1.89258 9.08449C1.76925 9.35866 1.66675 9.67616 1.66675 10.0003C1.66675 10.3237 1.76925 10.6428 1.89175 10.9162C2.02091 11.2012 2.20008 11.4995 2.41341 11.7953C2.84091 12.3895 3.44341 13.0287 4.17425 13.6178C5.62675 14.7887 7.68091 15.8337 10.0001 15.8337C12.3192 15.8337 14.3734 14.7887 15.8259 13.6178C16.5567 13.0295 17.1592 12.3895 17.5867 11.7953C17.8009 11.4987 17.9792 11.2012 18.1076 10.9162C18.2309 10.6428 18.3334 10.3245 18.3334 10.0003C18.3334 9.67699 18.2309 9.35783 18.1084 9.08449C17.964 8.7749 17.7893 8.48041 17.5867 8.20533C17.1592 7.61116 16.5567 6.97199 15.8259 6.38283C14.3734 5.21199 12.3192 4.16699 10.0001 4.16699ZM9.16675 10.0003C9.16675 9.77931 9.25455 9.56735 9.41083 9.41107C9.56711 9.25479 9.77907 9.16699 10.0001 9.16699C10.2211 9.16699 10.4331 9.25479 10.5893 9.41107C10.7456 9.56735 10.8334 9.77931 10.8334 10.0003C10.8334 10.2213 10.7456 10.4333 10.5893 10.5896C10.4331 10.7459 10.2211 10.8337 10.0001 10.8337C9.77907 10.8337 9.56711 10.7459 9.41083 10.5896C9.25455 10.4333 9.16675 10.2213 9.16675 10.0003ZM10.0001 7.50033C9.33704 7.50033 8.70116 7.76372 8.23231 8.23256C7.76347 8.7014 7.50008 9.33728 7.50008 10.0003C7.50008 10.6634 7.76347 11.2993 8.23231 11.7681C8.70116 12.2369 9.33704 12.5003 10.0001 12.5003C10.6631 12.5003 11.299 12.2369 11.7678 11.7681C12.2367 11.2993 12.5001 10.6634 12.5001 10.0003C12.5001 9.33728 12.2367 8.7014 11.7678 8.23256C11.299 7.76372 10.6631 7.50033 10.0001 7.50033Z" fill="#667185"/>
</g>
</svg>
