<svg width="20" height="20" viewBox="0 0 20 20" fill="none" xmlns="http://www.w3.org/2000/svg">
<path d="M3.9225 2.74418C3.76533 2.59238 3.55483 2.50839 3.33633 2.51029C3.11784 2.51218 2.90883 2.59982 2.75432 2.75433C2.59981 2.90884 2.51217 3.11785 2.51027 3.33635C2.50838 3.55484 2.59237 3.76535 2.74417 3.92251L4.76417 5.94251C3.5725 6.83918 2.5325 8.07085 1.755 9.62751C1.6972 9.74318 1.66711 9.87071 1.66711 10C1.66711 10.1293 1.6972 10.2568 1.755 10.3725C3.55334 13.97 6.74667 15.8333 10 15.8333C11.2958 15.8333 12.5833 15.5375 13.775 14.9542L16.0775 17.2558C16.2347 17.4076 16.4452 17.4916 16.6637 17.4897C16.8822 17.4878 17.0912 17.4002 17.2457 17.2457C17.4002 17.0912 17.4878 16.8822 17.4897 16.6637C17.4916 16.4452 17.4076 16.2347 17.2558 16.0775L3.9225 2.74418ZM12.5117 13.69C11.695 14.0092 10.845 14.1667 10 14.1667C7.52584 14.1667 4.99834 12.8167 3.44167 10C4.1225 8.76751 4.99 7.81668 5.95667 7.13585L7.74334 8.92251C7.52007 9.38914 7.44706 9.91353 7.53435 10.4234C7.62164 10.9333 7.86495 11.4035 8.23073 11.7693C8.59651 12.1351 9.06674 12.3784 9.57661 12.4657C10.0865 12.553 10.6109 12.4799 11.0775 12.2567L12.5108 13.69H12.5117ZM15.46 11.58C15.8625 11.1167 16.2317 10.5908 16.5583 10C15.0017 7.18335 12.475 5.83335 10 5.83335C9.90667 5.83335 9.81334 5.83501 9.72 5.83918L8.2325 4.35251C8.81357 4.22907 9.40597 4.16678 10 4.16668C13.2525 4.16668 16.4467 6.03001 18.245 9.62751C18.3028 9.74318 18.3329 9.87071 18.3329 10C18.3329 10.1293 18.3028 10.2568 18.245 10.3725C17.8179 11.2356 17.2785 12.0384 16.6408 12.76L15.46 11.58Z" fill="#667185"/>
</svg>
