<svg width="24" height="24" viewBox="0 0 24 25" fill="none" xmlns="http://www.w3.org/2000/svg">
<g id="fluent:home-24-filled">
<path id="Vector" d="M13.45 3.03295C13.0442 2.69098 12.5307 2.50342 12 2.50342C11.4693 2.50342 10.9558 2.69098 10.55 3.03295L3.8 8.72795C3.54946 8.93911 3.34806 9.20243 3.20988 9.49952C3.0717 9.79661 3.00007 10.1203 3 10.448V19.753C3 20.719 3.784 21.503 4.75 21.503H7.75C8.21413 21.503 8.65925 21.3186 8.98744 20.9904C9.31563 20.6622 9.5 20.2171 9.5 19.753V15.75C9.5 15.07 10.042 14.518 10.717 14.5H13.283C13.6088 14.5086 13.9183 14.644 14.1456 14.8775C14.373 15.111 14.5001 15.4241 14.5 15.75V19.753C14.5 20.719 15.284 21.503 16.25 21.503H19.25C19.7141 21.503 20.1592 21.3186 20.4874 20.9904C20.8156 20.6622 21 20.2171 21 19.753V10.447C20.9999 10.1193 20.9283 9.79561 20.7901 9.49852C20.6519 9.20143 20.4505 8.93811 20.2 8.72695L13.45 3.03295Z" fill="white"/>
</g>
</svg>
