<svg width="21" height="21" viewBox="0 0 21 21" fill="none" xmlns="http://www.w3.org/2000/svg">
<g id="tabler:link">
<path id="Vector" d="M7.91825 13.3204L12.9182 8.32036M9.58492 5.82036L9.97075 5.3737C10.7523 4.5923 11.8122 4.15336 12.9173 4.15344C14.0224 4.15352 15.0823 4.59261 15.8637 5.37411C16.6451 6.15562 17.084 7.21552 17.0839 8.32066C17.0838 9.42579 16.6448 10.4856 15.8632 11.267L15.4182 11.6537M11.2516 15.8204L10.9207 16.2654C10.1301 17.0472 9.06307 17.4857 7.95117 17.4857C6.83926 17.4857 5.77221 17.0472 4.98158 16.2654C4.59188 15.88 4.28249 15.4212 4.07134 14.9155C3.86019 14.4098 3.75146 13.8672 3.75146 13.3191C3.75146 12.7711 3.86019 12.2285 4.07134 11.7227C4.28249 11.217 4.59188 10.7582 4.98158 10.3729L5.41825 9.98703" stroke="#686868" strokeWidth="1.7" strokeLinecap="round" strokeLinejoin="round"/>
</g>
</svg>
