<svg width="24" height="25" viewBox="0 0 24 25" fill="none" xmlns="http://www.w3.org/2000/svg">
<g id="bi:people-fill">
<path id="Vector" d="M10.5 21.5C10.5 21.5 9 21.5 9 20C9 18.5 10.5 14 16.5 14C22.5 14 24 18.5 24 20C24 21.5 22.5 21.5 22.5 21.5H10.5ZM16.5 12.5C17.6935 12.5 18.8381 12.0259 19.682 11.182C20.5259 10.3381 21 9.19347 21 8C21 6.80653 20.5259 5.66193 19.682 4.81802C18.8381 3.97411 17.6935 3.5 16.5 3.5C15.3065 3.5 14.1619 3.97411 13.318 4.81802C12.4741 5.66193 12 6.80653 12 8C12 9.19347 12.4741 10.3381 13.318 11.182C14.1619 12.0259 15.3065 12.5 16.5 12.5ZM7.824 21.5C7.60163 21.0317 7.49074 20.5183 7.5 20C7.5 17.9675 8.52 15.875 10.404 14.42C9.46364 14.1303 8.48392 13.9886 7.5 14C1.5 14 0 18.5 0 20C0 21.5 1.5 21.5 1.5 21.5H7.824ZM6.75 12.5C7.74456 12.5 8.69839 12.1049 9.40165 11.4017C10.1049 10.6984 10.5 9.74456 10.5 8.75C10.5 7.75544 10.1049 6.80161 9.40165 6.09835C8.69839 5.39509 7.74456 5 6.75 5C5.75544 5 4.80161 5.39509 4.09835 6.09835C3.39509 6.80161 3 7.75544 3 8.75C3 9.74456 3.39509 10.6984 4.09835 11.4017C4.80161 12.1049 5.75544 12.5 6.75 12.5Z" fill="#E6E6E6"/>
</g>
</svg>
