<svg width="24" height="24" viewBox="0 0 24 25" fill="none" xmlns="http://www.w3.org/2000/svg">
<g id="mingcute:notification-fill" clip-path="url(#clip0_82_142136)">
<g id="Group">
<path id="Vector" d="M15 19.5C15.0001 20.0046 14.8096 20.4906 14.4665 20.8605C14.1234 21.2305 13.6531 21.4572 13.15 21.495L13 21.5H11C10.4954 21.5002 10.0094 21.3096 9.63942 20.9665C9.26944 20.6234 9.04281 20.1532 9.00497 19.65L8.99997 19.5H15ZM12 2.5C13.8149 2.49997 15.559 3.20489 16.8642 4.46607C18.1694 5.72726 18.9337 7.44609 18.996 9.26L19 9.5V13.264L20.822 16.908C20.9015 17.067 20.9413 17.2429 20.9379 17.4206C20.9346 17.5984 20.8882 17.7727 20.8028 17.9286C20.7174 18.0845 20.5955 18.2174 20.4475 18.3158C20.2994 18.4143 20.1298 18.4754 19.953 18.494L19.838 18.5H4.16197C3.98413 18.5001 3.80894 18.457 3.65139 18.3745C3.49385 18.292 3.35865 18.1725 3.25739 18.0264C3.15613 17.8802 3.09182 17.7116 3.06997 17.5351C3.04813 17.3586 3.0694 17.1795 3.13197 17.013L3.17797 16.908L4.99997 13.264V9.5C4.99997 7.64348 5.73747 5.86301 7.05022 4.55025C8.36298 3.2375 10.1435 2.5 12 2.5Z" fill="#E6E6E6"/>
</g>
</g>
<defs>
<clipPath id="clip0_82_142136">
<rect width="24" height="24" fill="white" transform="translate(0 0.5)"/>
</clipPath>
</defs>
</svg>
