<svg width="13" height="13" viewBox="0 0 13 13" fill="none" xmlns="http://www.w3.org/2000/svg">
<path d="M12.7563 2.64106L10.3828 0.255377C10.2259 0.0993227 10.0137 0.0117187 9.79244 0.0117188C9.57118 0.0117188 9.35893 0.0993227 9.20208 0.255377L0.787496 8.65783L0.0192258 11.9735C-0.00727699 12.0947 -0.00636846 12.2203 0.0218849 12.3411C0.0501383 12.462 0.105023 12.5749 0.182529 12.6718C0.260035 12.7687 0.358205 12.847 0.469868 12.9011C0.58153 12.9552 0.703863 12.9837 0.827932 12.9844C0.885742 12.9902 0.943993 12.9902 1.0018 12.9844L4.35389 12.2161L12.7563 3.82177C12.9124 3.66492 13 3.45267 13 3.23141C13 3.01016 12.9124 2.79791 12.7563 2.64106ZM3.94954 11.4883L0.807714 12.1474L1.52342 9.06623L7.81919 2.79471L10.2453 5.22083L3.94954 11.4883ZM10.7871 4.63452L8.36103 2.2084L9.76817 0.80934L12.1539 3.23546L10.7871 4.63452Z" fill="#E77400"/>
</svg>
