<svg width="80" height="80" viewBox="0 0 80 80" fill="none" xmlns="http://www.w3.org/2000/svg">
<g opacity="0.8">
<path d="M31.6665 51.9469V28.0535C31.667 27.7546 31.7479 27.4613 31.9007 27.2043C32.0535 26.9474 32.2726 26.7363 32.5351 26.5932C32.7975 26.45 33.0936 26.3801 33.3924 26.3907C33.6912 26.4013 33.9816 26.4921 34.2332 26.6535L52.8198 38.5969C53.0552 38.7477 53.2488 38.9552 53.383 39.2004C53.5171 39.4457 53.5874 39.7207 53.5874 40.0002C53.5874 40.2797 53.5171 40.5547 53.383 40.8C53.2488 41.0452 53.0552 41.2527 52.8198 41.4035L34.2332 53.3502C33.9816 53.5116 33.6912 53.6024 33.3924 53.613C33.0936 53.6237 32.7975 53.5537 32.5351 53.4106C32.2726 53.2674 32.0535 53.0563 31.9007 52.7994C31.7479 52.5425 31.667 52.2492 31.6665 51.9502V51.9469Z" fill="white"/>
<path d="M3.3335 39.9997C3.3335 19.7497 19.7502 3.33301 40.0002 3.33301C60.2502 3.33301 76.6668 19.7497 76.6668 39.9997C76.6668 60.2497 60.2502 76.6663 40.0002 76.6663C19.7502 76.6663 3.3335 60.2497 3.3335 39.9997ZM40.0002 8.33301C31.6016 8.33301 23.5471 11.6693 17.6084 17.608C11.6698 23.5466 8.3335 31.6011 8.3335 39.9997C8.3335 48.3982 11.6698 56.4527 17.6084 62.3914C23.5471 68.33 31.6016 71.6663 40.0002 71.6663C48.3987 71.6663 56.4532 68.33 62.3919 62.3914C68.3305 56.4527 71.6668 48.3982 71.6668 39.9997C71.6668 31.6011 68.3305 23.5466 62.3919 17.608C56.4532 11.6693 48.3987 8.33301 40.0002 8.33301Z" fill="white"/>
</g>
</svg>
