<svg width="17" height="16" viewBox="0 0 17 16" fill="none" xmlns="http://www.w3.org/2000/svg">
<g id="icon / rotate-right">
<path id="icon" d="M12.1004 2.66667C12.1004 2.29848 12.3989 2 12.7671 2C13.1352 2 13.4337 2.29848 13.4337 2.66667V4.8C13.4337 5.16819 13.1352 5.46667 12.7671 5.46667H10.6333C10.2651 5.46667 9.96667 5.16819 9.96667 4.8C9.96667 4.43181 10.2651 4.13333 10.6333 4.13333H11.1138C10.3679 3.62802 9.4684 3.33333 8.5 3.33333C5.92267 3.33333 3.83333 5.42267 3.83333 8C3.83333 10.5773 5.92267 12.6667 8.5 12.6667C11.0773 12.6667 13.1667 10.5773 13.1667 8C13.1667 7.63181 13.4651 7.33333 13.8333 7.33333C14.2015 7.33333 14.5 7.63181 14.5 8C14.5 11.3137 11.8137 14 8.5 14C5.18629 14 2.5 11.3137 2.5 8C2.5 4.68629 5.18629 2 8.5 2C9.85105 2 11.0978 2.44688 12.1004 3.19998V2.66667Z" fill="#F56630"/>
</g>
</svg>
