<svg width="24" height="24" viewBox="0 0 25 24" fill="none" xmlns="http://www.w3.org/2000/svg">
<g id="iconoir:mouse-scroll-wheel">
<path id="Vector" d="M12.5 5L13.03 4.47C12.8894 4.32955 12.6988 4.25066 12.5 4.25066C12.3012 4.25066 12.1106 4.32955 11.97 4.47L12.5 5ZM12.5 13L11.97 13.53C12.1106 13.6705 12.3012 13.7493 12.5 13.7493C12.6988 13.7493 12.8894 13.6705 13.03 13.53L12.5 13ZM9.97 6.47C9.83752 6.61217 9.7654 6.80022 9.76882 6.99452C9.77225 7.18882 9.85097 7.37421 9.98838 7.51162C10.1258 7.64903 10.3112 7.72775 10.5055 7.73117C10.6998 7.7346 10.8878 7.66248 11.03 7.53L9.97 6.47ZM13.97 7.53C14.0387 7.60369 14.1215 7.66279 14.2135 7.70378C14.3055 7.74477 14.4048 7.76681 14.5055 7.76859C14.6062 7.77037 14.7062 7.75184 14.7996 7.71412C14.893 7.6764 14.9778 7.62026 15.049 7.54904C15.1203 7.47782 15.1764 7.39299 15.2141 7.2996C15.2518 7.20621 15.2704 7.10618 15.2686 7.00548C15.2668 6.90477 15.2448 6.80546 15.2038 6.71346C15.1628 6.62146 15.1037 6.53866 15.03 6.47L13.97 7.53ZM11.03 10.47C10.9613 10.3963 10.8785 10.3372 10.7865 10.2962C10.6945 10.2552 10.5952 10.2332 10.4945 10.2314C10.3938 10.2296 10.2938 10.2482 10.2004 10.2859C10.107 10.3236 10.0222 10.3797 9.95096 10.451C9.87974 10.5222 9.8236 10.607 9.78588 10.7004C9.74816 10.7938 9.72963 10.8938 9.73141 10.9945C9.73318 11.0952 9.75523 11.1945 9.79622 11.2865C9.83721 11.3785 9.89631 11.4613 9.97 11.53L11.03 10.47ZM15.03 11.53C15.1037 11.4613 15.1628 11.3785 15.2038 11.2865C15.2448 11.1945 15.2668 11.0952 15.2686 10.9945C15.2704 10.8938 15.2518 10.7938 15.2141 10.7004C15.1764 10.607 15.1203 10.5222 15.049 10.451C14.9778 10.3797 14.893 10.3236 14.7996 10.2859C14.7062 10.2482 14.6062 10.2296 14.5055 10.2314C14.4048 10.2332 14.3055 10.2552 14.2135 10.2962C14.1215 10.3372 14.0387 10.3963 13.97 10.47L15.03 11.53ZM3.75 10V14H5.25V10H3.75ZM21.25 14V10H19.75V14H21.25ZM11.75 5V13H13.25V5H11.75ZM11.97 4.47L9.97 6.47L11.03 7.53L13.03 5.53L11.97 4.47ZM11.97 5.53L13.97 7.53L15.03 6.47L13.03 4.47L11.97 5.53ZM13.03 12.47L11.03 10.47L9.97 11.53L11.97 13.53L13.03 12.47ZM13.03 13.53L15.03 11.53L13.97 10.47L11.97 12.47L13.03 13.53ZM21.25 10C21.25 7.67936 20.3281 5.45376 18.6872 3.81282C17.0462 2.17187 14.8206 1.25 12.5 1.25V2.75C14.4228 2.75 16.2669 3.51384 17.6265 4.87348C18.9862 6.23311 19.75 8.07718 19.75 10H21.25ZM12.5 22.75C13.6491 22.75 14.7869 22.5237 15.8485 22.0839C16.9101 21.6442 17.8747 20.9997 18.6872 20.1872C19.4997 19.3747 20.1442 18.4101 20.5839 17.3485C21.0237 16.2869 21.25 15.1491 21.25 14H19.75C19.75 15.9228 18.9862 17.7669 17.6265 19.1265C16.2669 20.4862 14.4228 21.25 12.5 21.25V22.75ZM3.75 14C3.75 16.3206 4.67187 18.5462 6.31282 20.1872C7.95376 21.8281 10.1794 22.75 12.5 22.75V21.25C10.5772 21.25 8.73311 20.4862 7.37348 19.1265C6.01384 17.7669 5.25 15.9228 5.25 14H3.75ZM5.25 10C5.25 8.07718 6.01384 6.23311 7.37348 4.87348C8.73311 3.51384 10.5772 2.75 12.5 2.75V1.25C10.1794 1.25 7.95376 2.17187 6.31282 3.81282C4.67187 5.45376 3.75 7.67936 3.75 10H5.25Z" fill="black"/>
</g>
</svg>
