<svg width="20" height="20" viewBox="0 0 20 20" fill="none" xmlns="http://www.w3.org/2000/svg">
<g id="Icon-left">
<path id="Solid" fill-rule="evenodd" clip-rule="evenodd" d="M9.58342 1.66675C5.21116 1.66675 1.66675 5.21116 1.66675 9.58342C1.66675 13.9557 5.21116 17.5001 9.58342 17.5001C11.4694 17.5001 13.2013 16.8406 14.5612 15.7397L16.9108 18.0893C17.2363 18.4148 17.7639 18.4148 18.0893 18.0893C18.4148 17.7639 18.4148 17.2363 18.0893 16.9108L15.7397 14.5612C16.8406 13.2013 17.5001 11.4694 17.5001 9.58342C17.5001 5.21116 13.9557 1.66675 9.58342 1.66675ZM3.33341 9.58342C3.33341 6.13164 6.13164 3.33341 9.58342 3.33341C13.0352 3.33341 15.8334 6.13164 15.8334 9.58342C15.8334 13.0352 13.0352 15.8334 9.58342 15.8334C6.13164 15.8334 3.33341 13.0352 3.33341 9.58342Z" fill="#686868"/>
</g>
</svg>
