<svg width="24" height="25" viewBox="0 0 24 25" fill="none" xmlns="http://www.w3.org/2000/svg">
<g id="solar:settings-bold">
<path id="Vector" fill-rule="evenodd" clip-rule="evenodd" d="M14.2791 2.652C13.9091 2.5 13.4391 2.5 12.5001 2.5C11.5611 2.5 11.0911 2.5 10.7211 2.652C10.2285 2.85421 9.83645 3.24377 9.63107 3.735C9.53707 3.958 9.50107 4.219 9.48607 4.598C9.4794 4.8726 9.4028 5.14097 9.26352 5.37772C9.12423 5.61447 8.92686 5.81178 8.69007 5.951C8.44882 6.0851 8.17762 6.15615 7.9016 6.15754C7.62558 6.15894 7.35367 6.09065 7.11107 5.959C6.77307 5.781 6.52807 5.683 6.28607 5.651C5.75663 5.58148 5.22114 5.7238 4.79607 6.047C4.47807 6.289 4.24307 6.693 3.77407 7.5C3.30407 8.307 3.07007 8.71 3.01707 9.105C2.94707 9.631 3.09107 10.163 3.41707 10.584C3.56507 10.776 3.77407 10.937 4.09707 11.139C4.57407 11.436 4.88007 11.942 4.88007 12.5C4.88007 13.058 4.57407 13.564 4.09807 13.86C3.77407 14.063 3.56507 14.224 3.41607 14.416C3.25515 14.6239 3.13704 14.8617 3.06856 15.1156C3.00007 15.3694 2.98257 15.6343 3.01707 15.895C3.07007 16.289 3.30407 16.693 3.77407 17.5C4.24407 18.307 4.47807 18.71 4.79607 18.953C5.22007 19.276 5.75607 19.418 6.28607 19.349C6.52807 19.317 6.77307 19.219 7.11107 19.041C7.3538 18.9092 7.62589 18.8408 7.9021 18.8422C8.17831 18.8436 8.44969 18.9147 8.69107 19.049C9.17707 19.329 9.46507 19.844 9.48607 20.402C9.50107 20.782 9.53707 21.042 9.63107 21.265C9.83507 21.755 10.2271 22.145 10.7211 22.348C11.0911 22.5 11.5611 22.5 12.5001 22.5C13.4391 22.5 13.9091 22.5 14.2791 22.348C14.7716 22.1458 15.1637 21.7562 15.3691 21.265C15.4631 21.042 15.4991 20.782 15.5141 20.402C15.5341 19.844 15.8231 19.328 16.3101 19.049C16.5513 18.9149 16.8225 18.8439 17.0985 18.8425C17.3746 18.8411 17.6465 18.9093 17.8891 19.041C18.2271 19.219 18.4721 19.317 18.7141 19.349C19.2441 19.419 19.7801 19.276 20.2041 18.953C20.5221 18.711 20.7571 18.307 21.2261 17.5C21.6961 16.693 21.9301 16.29 21.9831 15.895C22.0174 15.6343 21.9998 15.3693 21.9311 15.1155C21.8625 14.8616 21.7442 14.6239 21.5831 14.416C21.4351 14.224 21.2261 14.063 20.9031 13.861C20.4261 13.564 20.1201 13.058 20.1201 12.5C20.1201 11.942 20.4261 11.436 20.9021 11.14C21.2261 10.937 21.4351 10.776 21.5841 10.584C21.745 10.3761 21.8631 10.1383 21.9316 9.88443C22.0001 9.63057 22.0176 9.36566 21.9831 9.105C21.9301 8.711 21.6961 8.307 21.2261 7.5C20.7561 6.693 20.5221 6.29 20.2041 6.047C19.779 5.7238 19.2435 5.58148 18.7141 5.651C18.4721 5.683 18.2271 5.781 17.8891 5.959C17.6463 6.09083 17.3743 6.15922 17.098 6.15782C16.8218 6.15642 16.5504 6.08528 16.3091 5.951C16.0725 5.81166 15.8753 5.61429 15.7362 5.37755C15.5971 5.14081 15.5206 4.87251 15.5141 4.598C15.4991 4.218 15.4631 3.958 15.3691 3.735C15.2674 3.49174 15.1188 3.27088 14.9318 3.08506C14.7448 2.89923 14.523 2.75208 14.2791 2.652ZM12.5001 15.5C14.1701 15.5 15.5231 14.157 15.5231 12.5C15.5231 10.843 14.1691 9.5 12.5001 9.5C10.8301 9.5 9.47707 10.843 9.47707 12.5C9.47707 14.157 10.8311 15.5 12.5001 15.5Z" fill="#E6E6E6"/>
</g>
</svg>
