<svg width="24" height="24" viewBox="0 0 24 25" fill="none" xmlns="http://www.w3.org/2000/svg">
<g id="ph:star-fill">
<path id="Vector" d="M21.9844 11.2232L17.7563 14.9132L19.0229 20.4069C19.0899 20.6941 19.0708 20.9947 18.9679 21.2711C18.865 21.5475 18.6829 21.7874 18.4444 21.9609C18.2059 22.1344 17.9216 22.2337 17.627 22.2464C17.3323 22.2592 17.0405 22.1848 16.7879 22.0326L11.9963 19.1263L7.21507 22.0326C6.96248 22.1848 6.67062 22.2592 6.37598 22.2464C6.08134 22.2337 5.797 22.1344 5.5585 21.9609C5.32 21.7874 5.13793 21.5475 5.03505 21.2711C4.93217 20.9947 4.91305 20.6941 4.98007 20.4069L6.24476 14.9188L2.01569 11.2232C1.79202 11.0303 1.63027 10.7756 1.55075 10.4911C1.47122 10.2067 1.47746 9.90504 1.56867 9.6241C1.65988 9.34315 1.83201 9.09539 2.06347 8.91188C2.29493 8.72838 2.57542 8.61729 2.86976 8.59256L8.44413 8.10974L10.6201 2.91974C10.7337 2.64742 10.9254 2.4148 11.1709 2.25117C11.4165 2.08755 11.705 2.00024 12.0001 2.00024C12.2952 2.00024 12.5836 2.08755 12.8292 2.25117C13.0748 2.4148 13.2664 2.64742 13.3801 2.91974L15.5626 8.10974L21.1351 8.59256C21.4294 8.61729 21.7099 8.72838 21.9414 8.91188C22.1728 9.09539 22.3449 9.34315 22.4362 9.6241C22.5274 9.90504 22.5336 10.2067 22.4541 10.4911C22.3746 10.7756 22.2128 11.0303 21.9891 11.2232H21.9844Z" fill="#E6E6E6"/>
</g>
</svg>
