<svg width="20" height="20" viewBox="0 0 20 20" fill="none" xmlns="http://www.w3.org/2000/svg">
<g id="icon / check-circle">
<path id="icon" fill-rule="evenodd" clip-rule="evenodd" d="M10 17.5C14.1421 17.5 17.5 14.1421 17.5 10C17.5 5.85786 14.1421 2.5 10 2.5C5.85786 2.5 2.5 5.85786 2.5 10C2.5 14.1421 5.85786 17.5 10 17.5ZM13.0628 8.94788C13.4022 8.63703 13.4254 8.1099 13.1145 7.7705C12.8037 7.4311 12.2766 7.40795 11.9372 7.71879L8.86043 10.5366L8.06284 9.80615C7.72343 9.49531 7.1963 9.51846 6.88546 9.85786C6.57461 10.1973 6.59776 10.7244 6.93716 11.0352L8.2976 12.2812C8.61612 12.5729 9.10475 12.5729 9.42327 12.2812L13.0628 8.94788Z" fill="#0F973D"/>
</g>
</svg>
