<svg width="20" height="20" viewBox="0 0 20 20" fill="none" xmlns="http://www.w3.org/2000/svg">
<g id="button icon">
<path id="Vector" d="M7.99169 8.33355V7.83355H7.49169H6.16669C5.87882 7.83355 5.72097 7.47804 5.93691 7.2621L9.76191 3.4371L9.76227 3.43674C9.79292 3.40602 9.82933 3.38165 9.86941 3.36503C9.90949 3.3484 9.95246 3.33984 9.99585 3.33984C10.0392 3.33984 10.0822 3.3484 10.1223 3.36503C10.1624 3.38165 10.1988 3.40602 10.2294 3.43674L10.2298 3.4371L14.0548 7.2621C14.2632 7.47048 14.1152 7.83355 13.8167 7.83355H12.4917H11.9917V8.33355V12.5002C11.9917 12.6824 11.8405 12.8335 11.6584 12.8335H8.32502C8.14283 12.8335 7.99169 12.6824 7.99169 12.5002V8.33355ZM5.00002 16.1669C4.81783 16.1669 4.66669 16.0157 4.66669 15.8335C4.66669 15.6514 4.81783 15.5002 5.00002 15.5002H15C15.1822 15.5002 15.3334 15.6514 15.3334 15.8335C15.3334 16.0157 15.1822 16.1669 15 16.1669H5.00002Z" fill="white" stroke="white"/>
</g>
</svg>
