<svg width="27" height="26" viewBox="0 0 27 26" fill="none" xmlns="http://www.w3.org/2000/svg">
<g id="icon / info-circle">
<path id="icon" fill-rule="evenodd" clip-rule="evenodd" d="M22.9922 13C22.9922 18.2424 18.7424 22.4922 13.5 22.4922C8.25761 22.4922 4.00781 18.2424 4.00781 13C4.00781 7.75761 8.25761 3.50781 13.5 3.50781C18.7424 3.50781 22.9922 7.75761 22.9922 13ZM13.5 6.67188C14.0825 6.67188 14.5547 7.14407 14.5547 7.72656V15.1094C14.5547 15.6919 14.0825 16.1641 13.5 16.1641C12.9175 16.1641 12.4453 15.6919 12.4453 15.1094L12.4453 7.72656C12.4453 7.14407 12.9175 6.67188 13.5 6.67188ZM12.1816 18.0098C12.1816 18.7379 12.7719 19.3281 13.5 19.3281C14.2281 19.3281 14.8184 18.7379 14.8184 18.0098C14.8184 17.2817 14.2281 16.6914 13.5 16.6914C12.7719 16.6914 12.1816 17.2817 12.1816 18.0098Z" fill="#F3A218"/>
</g>
</svg>
