<svg width="24" height="25" viewBox="0 0 24 25" fill="none" xmlns="http://www.w3.org/2000/svg">
<g id="clarity:note-solid" clip-path="url(#clip0_29_72278)">
<path id="Vector" d="M22.0001 4.7667L19.5334 2.30003C19.3214 2.09788 19.0397 1.98511 18.7467 1.98511C18.4538 1.98511 18.1721 2.09788 17.9601 2.30003L15.7667 4.50003H4.00008C3.64646 4.50003 3.30732 4.6405 3.05727 4.89055C2.80722 5.1406 2.66675 5.47974 2.66675 5.83336V20.5C2.66675 20.8537 2.80722 21.1928 3.05727 21.4428C3.30732 21.6929 3.64646 21.8334 4.00008 21.8334H18.6667C19.0204 21.8334 19.3595 21.6929 19.6096 21.4428C19.8596 21.1928 20.0001 20.8537 20.0001 20.5V8.34003L22.0001 6.34003C22.2085 6.13129 22.3256 5.84835 22.3256 5.55336C22.3256 5.25837 22.2085 4.97544 22.0001 4.7667ZM12.5534 13.92L9.76008 14.54L10.4267 11.7734L16.7934 5.39336L18.9467 7.54669L12.5534 13.92ZM19.6667 6.7867L17.5134 4.63336L18.7467 3.40003L20.9001 5.55336L19.6667 6.7867Z" fill="#E6E6E6"/>
</g>
<defs>
<clipPath id="clip0_29_72278">
<rect width="24" height="24" fill="white" transform="translate(0 0.5)"/>
</clipPath>
</defs>
</svg>
